HIERARCHY
ROOT Hips
{
  OFFSET 2.26061 22.2878 23.7974
  CHANNELS 6 Xposition Yposition Zposition Zrotation Xrotation Yrotation
  JOINT LeftUpLeg
  {
    OFFSET 8.64259 1.95398 -2.38835
    CHANNELS 3 Zrotation Xrotation Yrotation
    JOINT LeftLeg
    {
      OFFSET 43.7702 0 0
      CHANNELS 3 Zrotation Xrotation Yrotation
      JOINT LeftFoot
      {
        OFFSET 40.6238 0 0
        CHANNELS 3 Zrotation Xrotation Yrotation
        JOINT LeftToeBase
        {
          OFFSET 12.7242 0 0
          CHANNELS 3 Zrotation Xrotation Yrotation
          End Site
          {
            OFFSET 0 0 0
          }
        }
      }
    }
  }
  JOINT RightUpLeg
  {
    OFFSET -8.2249 1.95398 -2.59336
    CHANNELS 3 Zrotation Xrotation Yrotation
    JOINT RightLeg
    {
      OFFSET 43.5653 0 0
      CHANNELS 3 Zrotation Xrotation Yrotation
      JOINT RightFoot
      {
        OFFSET 40.6238 0 0
        CHANNELS 3 Zrotation Xrotation Yrotation
        JOINT RightToeBase
        {
          OFFSET 12.7242 0 0
          CHANNELS 3 Zrotation Xrotation Yrotation
          End Site
          {
            OFFSET 0 0 0
          }
        }
      }
    }
  }
  JOINT Spine
  {
    OFFSET 0.165834 0.87714 6.61349
    CHANNELS 3 Zrotation Xrotation Yrotation
    JOINT Spine1
    {
      OFFSET 7.38963 1.71661e-005 0
      CHANNELS 3 Zrotation Xrotation Yrotation
      JOINT Spine2
      {
        OFFSET 11.9445 1.14441e-005 0
        CHANNELS 3 Zrotation Xrotation Yrotation
        JOINT Spine3
        {
          OFFSET 14.7254 4.19617e-005 0
          CHANNELS 3 Zrotation Xrotation Yrotation
          JOINT Spine4
          {
            OFFSET 10.9679 0 0
            CHANNELS 3 Zrotation Xrotation Yrotation
            JOINT RightShoulder
            {
              OFFSET 2.46616 -1.6653 3.69651
              CHANNELS 3 Zrotation Xrotation Yrotation
              JOINT RightArm
              {
                OFFSET 13.0012 0 0
                CHANNELS 3 Zrotation Xrotation Yrotation
                JOINT RightForeArm
                {
                  OFFSET 28.7848 1.52588e-005 0
                  CHANNELS 3 Zrotation Xrotation Yrotation
                  JOINT RightHand
                  {
                    OFFSET 26.5688 1.52588e-005 0
                    CHANNELS 3 Zrotation Xrotation Yrotation
                    End Site
                    {
                      OFFSET 0 0 0
                    }
                  }
                }
              }
            }
            JOINT LeftShoulder
            {
              OFFSET 2.38034 -1.29275 -3.7523
              CHANNELS 3 Zrotation Xrotation Yrotation
              JOINT LeftArm
              {
                OFFSET 16.3182 6.10351e-005 0
                CHANNELS 3 Zrotation Xrotation Yrotation
                JOINT LeftForeArm
                {
                  OFFSET 27.0901 0 0
                  CHANNELS 3 Zrotation Xrotation Yrotation
                  JOINT LeftHand
                  {
                    OFFSET 24.5451 1.52588e-005 0
                    CHANNELS 3 Zrotation Xrotation Yrotation
                    End Site
                    {
                      OFFSET 0 0 0
                    }
                  }
                }
              }
            }
            JOINT Neck
            {
              OFFSET 5.0226 -0.0266342 0
              CHANNELS 3 Zrotation Xrotation Yrotation
              JOINT Head
              {
                OFFSET 6.69363 2.86102e-005 0
                CHANNELS 3 Zrotation Xrotation Yrotation
                End Site
                {
                  OFFSET 0 0 0
                }
              }
            }
          }
        }
      }
    }
  }
}
MOTION
Frames:	9
Frame Time:	0.0416667
31.5765 95.2299 -30.3921 84.5825 -44.6679 81.5598 -175.419 1.77361 88.8913 -52.3762 25.4907 2.26761 31.1028 -16.2359 -14.3318 27.5196 -2.33787 10.4443 177.778 27.9174 93.7279 -21.1786 -7.64992 -2.19998 51.9786 2.16966 2.0717 22.8858 -0.0621795 -1.78884 -0.910123 7.60231 -89.3313 11.6777 -1.49669 1.4887 0.00663761 -1.42971 1.55311 -22.5319 -1.87488 0.970042 -2.51928 -1.87486 0.970034 91.8417 -51.9765 -97.6106 31.1625 -24.957 39.1767 -7.62824 -8.61894 -80.748 -22.7026 0.238546 -6.16045 -97.0853 -47.8623 67.5334 -18.3381 6.8265 7.60988 12.8452 -10.0458 -116.616 33.5273 1.22041 -0.313155 11.1063 -0.339539 0.0587021 2.77135 -0.3442 -0.03385 
24.9731 96.7353 -36.8993 80.7197 -44.6214 78.771 -176.057 -0.211249 87.2767 -41.1367 29.3734 1.89223 37.5553 -13.3962 -11.076 31.6274 1.71042 8.28377 176.127 27.6368 92.2144 -7.48063 -14.3121 -0.829987 44.5145 4.72937 4.41466 36.9818 0.318963 -5.9515 -1.01524 7.39182 -89.4558 12.1005 -1.76097 1.2807 0.430007 -1.70289 1.35695 -22.1129 -2.06441 0.692118 -2.10026 -2.06443 0.692109 92.1437 -50.5063 -97.4343 32.5559 -24.7636 42.9399 -8.649 -6.44556 -83.6141 -21.3785 0.379496 -7.05043 -97.7407 -48.2321 66.6838 -16.9162 3.92034 6.21026 12.059 -11.6357 -125.257 31.4116 1.00709 -0.760028 14.2908 0.401273 1.47669 0.404585 0.00975907 -0.746809 
18.3373 97.3118 -43.4394 76.6065 -46.5328 75.8724 -175.379 -0.211862 85.7027 -31.313 27.4283 0.420027 44.117 -9.91576 -7.53641 39.2073 8.65834 9.61048 178.48 30.6538 91.4509 -13.5649 -15.2078 -3.30867 50.1211 2.66165 2.33896 43.2671 0.213461 -8.19634 -0.862975 7.17093 -89.4969 12.5395 -1.47477 1.1759 0.868806 -1.42159 1.23968 -21.6713 -1.76001 0.678244 -1.65866 -1.75997 0.678254 91.1148 -50.3212 -99.0453 32.3951 -23.4547 44.335 -8.48994 -3.76773 -86.2203 -18.3656 0.558011 -8.66866 -96.3505 -48.2658 68.7655 -16.7992 6.51415 5.27509 12.8763 -13.8651 -128.097 32.3677 0.753898 -1.67086 17.3363 0.919408 2.12958 -1.27869 0.303579 -1.30125 
11.0221 96.6438 -50.2974 75.3117 -48.6938 74.7231 -175.104 2.26714 84.178 -27.9278 25.4635 -0.831397 48.0633 -7.58204 -3.51669 42.5847 11.6179 8.31348 -178.707 34.0429 90.4027 -31.3847 -11.1942 -5.57256 56.642 0.0672275 0.229485 46.926 0.126544 -8.26473 -0.56393 7.15955 -89.4981 12.5583 -0.881194 1.1047 0.88719 -0.83173 1.14241 -21.6482 -1.17246 0.78881 -1.63558 -1.17245 0.788807 91.8081 -50.3477 -97.9791 29.6909 -23.3773 39.2961 -8.61725 -4.15772 -86.2567 -19.0811 0.514089 -8.23396 -97.3609 -48.1979 67.2368 -17.7766 7.45356 7.12903 10.7357 -11.5017 -124.699 30.9329 0.847434 -1.24018 17.7416 0.605572 1.73915 -0.983579 0.102915 -0.788341 
3.7052 95.3073 -57.501 79.4894 -49.8272 79.7484 -174.935 4.59571 84.7336 -31.1171 23.8646 -0.57061 55.5564 -1.52176 2.64358 48.2285 16.1653 5.50151 -178.121 32.8925 90.7759 -49.6549 -4.57882 -5.54912 58.1421 -0.745911 -0.341029 46.4711 0.0873863 -8.8661 -0.376732 7.40753 -89.6703 12.0606 -0.593229 0.721822 0.389621 -0.5609 0.74723 -22.1458 -0.782734 0.510169 -2.13311 -0.782731 0.510165 92.522 -51.7553 -96.6281 24.8188 -23.2295 30.9354 -8.88001 -5.54606 -84.375 -19.532 0.404876 -7.47856 -99.0061 -49.0599 65.1112 -19.0967 9.31089 10.9992 11.1582 -9.40414 -115.176 32.8462 1.02006 -0.864184 14.9174 -0.212461 1.00096 1.04074 -0.46587 -0.417782 
-3.34583 93.4974 -64.4875 81.3731 -50.6749 83.2157 -174.633 11.4389 85.3286 -39.4881 21.9995 -0.0692633 64.917 6.90427 7.85064 46.3985 14.5744 5.38172 -178.655 30.8585 91.2079 -64.3415 1.11512 -4.44345 59.6437 -2.25887 -1.34926 42.2398 0.342238 -5.97514 -0.119275 7.49045 -89.9345 11.8929 -0.206253 0.152844 0.221947 -0.199335 0.161772 -22.3133 -0.242666 0.0837856 -2.30068 -0.242657 0.0837876 92.7535 -52.4911 -96.1495 20.9193 -22.5076 22.6216 -8.85273 -5.14119 -84.6107 -18.9208 0.262242 -6.6827 -100.069 -51.28 64.3712 -20.3136 11.7549 13.6003 10.8315 -5.85182 -103.664 34.4796 1.27045 -0.284239 13.6888 -0.821341 1.38078 2.17697 -1.14217 -0.429398 
-10.7148 91.5882 -70.6732 81.4444 -51.4938 81.929 -174.551 19.7794 83.9623 -45.8139 18.7091 -0.356208 68.4531 11.1272 10.802 44.8971 13.0268 3.32865 -178.368 27.7593 88.8407 -75.2121 1.55036 -4.77837 57.4222 -2.08165 -1.27903 42.9697 0.274483 -7.28211 0.146421 7.51244 -89.7506 11.848 0.408491 0.453733 0.177054 0.428082 0.435302 -22.3577 0.253251 0.555529 -2.34505 0.253261 0.555527 92.8693 -53.5801 -95.7923 16.7032 -22.6128 12.4202 -8.81568 -6.92106 -84.5931 -21.3025 0.201696 -6.09985 -100.096 -51.9965 64.5921 -22.5641 13.9224 16.1698 10.6296 -3.15785 -89.6977 36.9977 1.89999 1.19008 15.2874 -1.94182 0.812775 0.38039 -2.09612 -0.18402 
-17.7723 90.8675 -76.3597 86.1817 -51.5662 84.56 -174.409 23.689 83.3869 -47.6187 15.9641 -0.451492 68.306 11.3929 11.8206 42.6513 10.9688 1.18493 -179.421 18.0539 86.7217 -77.4071 0.843621 -5.43624 54.3146 -1.20492 -0.706046 39.6439 0.39529 -4.69621 0.33576 7.77114 -89.66 11.329 0.826701 0.594445 -0.341776 0.852034 0.557481 -22.8771 0.609821 0.815415 -2.86441 0.609823 0.815419 92.3697 -52.0554 -96.8056 16.0583 -24.104 5.6313 -9.63888 -6.16198 -88.4893 -22.921 0.207377 -5.99972 -101.244 -52.1938 63.04 -25.8073 15.5957 23.5176 5.04382 -1.2409 -81.9555 38.6182 2.14505 1.6097 15.0444 -3.08881 1.36097 -0.179555 -3.37008 -0.938368 
-24.4549 92.1486 -81.8726 87.9613 -53.4174 85.5181 -174.576 25.8129 84.2569 -42.2924 13.1303 -0.430628 65.2896 7.53981 7.56516 37.6113 6.98508 1.9469 179.465 8.05701 85.035 -69.9656 0.350289 -7.12784 49.8257 0.649079 0.776219 34.0164 0.333508 -3.5123 0.801356 7.78002 -89.6593 11.3108 1.75339 0.502346 -0.359037 1.77378 0.424671 -22.9008 1.52132 1.00618 -2.88817 1.52134 1.00618 91.9035 -48.624 -98.1773 18.8547 -25.4761 1.7299 -10.7429 -3.11629 -93.9021 -22.7626 0.632496 -8.21667 -99.9298 -52.2485 64.9192 -31.026 18.4266 32.7051 4.10188 -2.53291 -83.0401 38.5177 2.07577 1.43602 12.9327 -4.28803 2.95438 -0.0723345 -4.90555 -1.66654 
